<?xml version="1.0" encoding="utf-8"?>
<!-- Generator: Adobe Illustrator 28.0.0, SVG Export Plug-In . SVG Version: 6.00 Build 0)  -->
<svg version="1.1" id="Layer_1" xmlns:serif="http://www.serif.com/"
	 xmlns="http://www.w3.org/2000/svg" xmlns:xlink="http://www.w3.org/1999/xlink" x="0px" y="0px" viewBox="0 0 456 456"
	 style="enable-background:new 0 0 456 456;" xml:space="preserve">
<style type="text/css">
	.st0{fill:#FFFFFF;}
	.st1{fill:#231F20;}
	.st2{font-family:'CalistoMT';}
	.st3{font-size:31.7313px;}
	.st4{fill:#EE3A39;}
	.st5{fill:#FBCD35;}
	.st6{fill:#445FAA;}
	.st7{fill:#0D9447;}
</style>
<rect x="135" y="135" class="st0" width="186" height="186"/>
<text transform="matrix(1 0 0 1 143.8994 304.5996)" class="st1 st2 st3">abletFactory</text>
<g>
	<g>
		<circle class="st4" cx="218.5" cy="234.3" r="40.3"/>
	</g>
</g>
<path class="st1" d="M218,195.4c21.7,0,39.3,17.7,39.3,39.3c0,21.6-17.7,39.3-39.3,39.3c-21.7,0-39.3-17.7-39.3-39.3
	S196.4,195.4,218,195.4 M218,191.5c-23.9,0-43.1,19.2-43.1,43.1c0,23.9,19.2,43.1,43.1,43.1s43.1-19.2,43.1-43.1
	S241.9,191.5,218,191.5L218,191.5z"/>
<g>
	<path class="st1" d="M218,219.1c8.6,0,15.7,7.1,15.7,15.7c0,8.6-7.1,15.7-15.7,15.7s-15.7-7.1-15.7-15.7
		C202.4,226,209.4,219.1,218,219.1 M218,218c-9.1,0-16.6,7.4-16.6,16.6c0,9.1,7.4,16.6,16.6,16.6s16.6-7.4,16.6-16.6
		C234.6,225.5,227.2,218,218,218L218,218z"/>
</g>
<g>
	<circle class="st5" cx="218.1" cy="234.6" r="15.7"/>
</g>
<g>
	<path class="st6" d="M276.2,149.6l4,9.4c1.2,2.9-0.2,6.2-2.9,7.4l-29.7,12.8c-2.9,1.2-6.2-0.2-7.4-2.9l-4-9.4
		c-1.2-2.9,0.2-6.2,2.9-7.4l29.7-12.8C271.6,145.3,275,146.7,276.2,149.6z"/>
</g>
<path class="st1" d="M270.8,147.3L270.8,147.3c1.1,0,2.2,0.6,2.6,1.7l5.2,12.3c0.3,0.6,0.3,1.5,0,2.2c-0.3,0.8-0.8,1.2-1.5,1.5
	l-30.5,13.1c-0.3,0.2-0.8,0.2-1.1,0.2c-1.1,0-2.2-0.6-2.6-1.7l-5.2-12.3c-0.3-0.6-0.3-1.5,0-2.2c0.3-0.8,0.8-1.2,1.5-1.5l30.5-13.1
	C270,147.5,270.3,147.3,270.8,147.3 M270.8,144.5c-0.8,0-1.5,0.2-2.2,0.5l-30.5,13.1c-2.9,1.2-4.2,4.6-2.9,7.4l5.2,12.3
	c0.9,2.2,3.1,3.4,5.2,3.4c0.8,0,1.5-0.2,2.2-0.5l30.5-13.1c2.9-1.2,4.2-4.6,2.9-7.4l-5.2-12.3C275.1,145.8,273,144.5,270.8,144.5
	L270.8,144.5z"/>
<g>
	<path class="st6" d="M289,180.9l4,9.4c1.2,2.9-0.2,6.2-2.9,7.4l-29.9,12.8c-2.9,1.2-6.2-0.2-7.4-2.9l-4-9.4
		c-1.2-2.9,0.2-6.2,2.9-7.4l29.9-12.8C284.4,176.6,287.7,178,289,180.9z"/>
</g>
<path class="st1" d="M283.6,178.7L283.6,178.7c1.1,0,2.2,0.6,2.6,1.7l5.2,12.3c0.6,1.4,0,3.1-1.5,3.7l-30.5,13.1
	c-0.3,0.2-0.8,0.2-1.1,0.2c-1.1,0-2.2-0.6-2.6-1.7l-5.2-12.3c-0.3-0.6-0.3-1.5,0-2.2c0.3-0.8,0.8-1.2,1.5-1.5l30.5-13.1
	C282.8,178.7,283.1,178.7,283.6,178.7 M283.6,175.8c-0.8,0-1.5,0.2-2.2,0.5l-30.5,13.1c-2.9,1.2-4.2,4.6-2.9,7.4l5.2,12.3
	c0.9,2.2,3.1,3.4,5.2,3.4c0.8,0,1.5-0.2,2.2-0.5l30.5-13.1c2.9-1.2,4.2-4.6,2.9-7.4l-5.2-12.3C287.9,177.2,285.7,175.8,283.6,175.8
	L283.6,175.8z"/>
<g>
	<path class="st7" d="M273.9,267.3l-15.4,6.8c-2.9,1.2-6.2,0-7.5-2.9l-41.1-94.2c-1.2-2.9,0-6.2,2.9-7.5l15.4-6.8
		c2.9-1.2,6.2,0,7.5,2.9l41.1,94.2C278,262.6,276.7,266,273.9,267.3z"/>
</g>
<path class="st1" d="M231.8,163.5c1.1,0,2.2,0.6,2.6,1.7l42,96.1c0.3,0.6,0.3,1.4,0,2.2c-0.3,0.8-0.8,1.2-1.5,1.5l-19.2,8.3
	c-0.3,0.2-0.8,0.3-1.1,0.3c-1.1,0-2.2-0.6-2.6-1.7l-42-96.1c-0.6-1.4,0-3.1,1.5-3.7l19.2-8.3C231.1,163.5,231.5,163.5,231.8,163.5
	 M231.8,160.6c-0.8,0-1.5,0.2-2.3,0.5l-19.2,8.3c-2.9,1.2-4.2,4.6-2.9,7.5l42,96.1c0.9,2.2,3.1,3.4,5.2,3.4c0.8,0,1.5-0.2,2.3-0.5
	l19.2-8.3c2.9-1.2,4.2-4.6,2.9-7.5l-42-96.1C236.2,161.9,234,160.6,231.8,160.6L231.8,160.6z"/>
</svg>
