<?xml version="1.0" encoding="utf-8"?>
<!-- Generator: Adobe Illustrator 28.0.0, SVG Export Plug-In . SVG Version: 6.00 Build 0)  -->
<svg version="1.1" id="Layer_1" xmlns:serif="http://www.serif.com/"
	 xmlns="http://www.w3.org/2000/svg" xmlns:xlink="http://www.w3.org/1999/xlink" x="0px" y="0px" viewBox="0 0 456 456"
	 style="enable-background:new 0 0 456 456;" xml:space="preserve">
<style type="text/css">
	.st0{fill:#FFFFFF;}
	.st1{fill:#231F20;}
	.st2{font-family:'CalistoMT';}
	.st3{font-size:20.6083px;}
	.st4{fill:#EE3A39;}
	.st5{fill:#FBCD35;}
	.st6{fill:#445FAA;}
	.st7{fill:#0D9447;}
</style>
<rect x="167.6" y="167.6" class="st0" width="120.8" height="120.8"/>
<text transform="matrix(1 0 0 1 173.3798 277.7488)" class="st1 st2 st3">abletFactory</text>
<g>
	<g>
		<circle class="st4" cx="221.8" cy="232.1" r="26.2"/>
	</g>
</g>
<path class="st1" d="M221.5,206.8c14.1,0,25.5,11.5,25.5,25.5s-11.5,25.5-25.5,25.5c-14.1,0-25.5-11.5-25.5-25.5
	S207.5,206.8,221.5,206.8 M221.5,204.3c-15.5,0-28,12.5-28,28s12.5,28,28,28s28-12.5,28-28S237,204.3,221.5,204.3L221.5,204.3z"/>
<g>
	<path class="st1" d="M221.5,222.2c5.6,0,10.2,4.6,10.2,10.2c0,5.6-4.6,10.2-10.2,10.2s-10.2-4.6-10.2-10.2
		C211.4,226.7,215.9,222.2,221.5,222.2 M221.5,221.5c-5.9,0-10.8,4.8-10.8,10.8c0,5.9,4.8,10.8,10.8,10.8s10.8-4.8,10.8-10.8
		C232.3,226.4,227.5,221.5,221.5,221.5L221.5,221.5z"/>
</g>
<g>
	<circle class="st5" cx="221.6" cy="232.3" r="10.2"/>
</g>
<g>
	<path class="st6" d="M259.3,177.1l2.6,6.1c0.8,1.9-0.1,4-1.9,4.8l-19.3,8.3c-1.9,0.8-4-0.1-4.8-1.9l-2.6-6.1
		c-0.8-1.9,0.1-4,1.9-4.8l19.3-8.3C256.3,174.3,258.5,175.2,259.3,177.1z"/>
</g>
<path class="st1" d="M255.8,175.6L255.8,175.6c0.7,0,1.4,0.4,1.7,1.1l3.4,8c0.2,0.4,0.2,1,0,1.4c-0.2,0.5-0.5,0.8-1,1l-19.8,8.5
	c-0.2,0.1-0.5,0.1-0.7,0.1c-0.7,0-1.4-0.4-1.7-1.1l-3.4-8c-0.2-0.4-0.2-1,0-1.4c0.2-0.5,0.5-0.8,1-1l19.8-8.5
	C255.3,175.7,255.5,175.6,255.8,175.6 M255.8,173.8c-0.5,0-1,0.1-1.4,0.3l-19.8,8.5c-1.9,0.8-2.7,3-1.9,4.8l3.4,8
	c0.6,1.4,2,2.2,3.4,2.2c0.5,0,1-0.1,1.4-0.3l19.8-8.5c1.9-0.8,2.7-3,1.9-4.8l-3.4-8C258.6,174.6,257.2,173.8,255.8,173.8
	L255.8,173.8z"/>
<g>
	<path class="st6" d="M267.6,197.4l2.6,6.1c0.8,1.9-0.1,4-1.9,4.8l-19.4,8.3c-1.9,0.8-4-0.1-4.8-1.9l-2.6-6.1
		c-0.8-1.9,0.1-4,1.9-4.8l19.4-8.3C264.6,194.6,266.8,195.5,267.6,197.4z"/>
</g>
<path class="st1" d="M264.1,196L264.1,196c0.7,0,1.4,0.4,1.7,1.1l3.4,8c0.4,0.9,0,2-1,2.4l-19.8,8.5c-0.2,0.1-0.5,0.1-0.7,0.1
	c-0.7,0-1.4-0.4-1.7-1.1l-3.4-8c-0.2-0.4-0.2-1,0-1.4c0.2-0.5,0.5-0.8,1-1l19.8-8.5C263.6,196,263.8,196,264.1,196 M264.1,194.1
	c-0.5,0-1,0.1-1.4,0.3l-19.8,8.5c-1.9,0.8-2.7,3-1.9,4.8l3.4,8c0.6,1.4,2,2.2,3.4,2.2c0.5,0,1-0.1,1.4-0.3l19.8-8.5
	c1.9-0.8,2.7-3,1.9-4.8l-3.4-8C266.9,195,265.5,194.1,264.1,194.1L264.1,194.1z"/>
<g>
	<path class="st7" d="M257.8,253.5l-10,4.4c-1.9,0.8-4,0-4.9-1.9l-26.7-61.2c-0.8-1.9,0-4,1.9-4.9l10-4.4c1.9-0.8,4,0,4.9,1.9
		l26.7,61.2C260.5,250.5,259.6,252.7,257.8,253.5z"/>
</g>
<path class="st1" d="M230.5,186.1c0.7,0,1.4,0.4,1.7,1.1l27.3,62.4c0.2,0.4,0.2,0.9,0,1.4s-0.5,0.8-1,1l-12.5,5.4
	c-0.2,0.1-0.5,0.2-0.7,0.2c-0.7,0-1.4-0.4-1.7-1.1l-27.3-62.4c-0.4-0.9,0-2,1-2.4l12.5-5.4C230,186.1,230.3,186.1,230.5,186.1
	 M230.5,184.2c-0.5,0-1,0.1-1.5,0.3l-12.5,5.4c-1.9,0.8-2.7,3-1.9,4.9l27.3,62.4c0.6,1.4,2,2.2,3.4,2.2c0.5,0,1-0.1,1.5-0.3
	l12.5-5.4c1.9-0.8,2.7-3,1.9-4.9l-27.3-62.4C233.3,185.1,231.9,184.2,230.5,184.2L230.5,184.2z"/>
</svg>
