<svg width="18" height="17" viewBox="0 0 18 17" fill="none" xmlns="http://www.w3.org/2000/svg">
<path d="M7.78022 10.119L5.92816 8.26694C5.77841 8.11719 5.5928 8.04231 5.37132 8.04231C5.14986 8.04231 4.95877 8.12182 4.79803 8.28083C4.64827 8.43281 4.57366 8.6194 4.57422 8.84062C4.57477 9.06183 4.65104 9.24732 4.80301 9.39708L7.2227 11.8306C7.38182 11.9884 7.56746 12.0672 7.77961 12.0672C7.99177 12.0672 8.17781 11.9884 8.33774 11.8306L13.1619 7.00321C13.3231 6.84419 13.4037 6.65478 13.4037 6.43498C13.4037 6.21517 13.3231 6.0249 13.1619 5.86417C13.0029 5.7144 12.8103 5.64184 12.5842 5.64648C12.3581 5.6511 12.1693 5.7283 12.0178 5.87806L7.78022 10.119ZM9.00064 16.9724C7.83466 16.9724 6.73645 16.7505 5.70601 16.3066C4.67555 15.8627 3.77676 15.2573 3.00964 14.4901C2.24251 13.723 1.63702 12.8244 1.19316 11.7942C0.749281 10.7641 0.527344 9.666 0.527344 8.50004C0.527344 7.32482 0.749281 6.22198 1.19316 5.19152C1.63702 4.16106 2.24234 3.26453 3.00911 2.50192C3.77589 1.73931 4.67443 1.13558 5.70474 0.690729C6.73506 0.245867 7.8333 0.0234375 8.99945 0.0234375C10.1749 0.0234375 11.2779 0.245777 12.3086 0.690458C13.3393 1.13515 14.2359 1.73866 14.9984 2.50098C15.7608 3.26328 16.3644 4.15972 16.8092 5.19027C17.2539 6.22081 17.4763 7.32392 17.4763 8.49958C17.4763 9.66586 17.2539 10.7642 16.809 11.7946C16.3642 12.825 15.7605 13.7237 14.9978 14.4905C14.2352 15.2574 13.3389 15.8627 12.3087 16.3066C11.2785 16.7505 10.1759 16.9724 9.00064 16.9724Z" fill="#11B113"/>
</svg>
